
******* Fragments.2008.DVDRiP.XViD.OPTIONAL.NORDIC-Zen_Bud ********

Format                           : AVI
File size                        : 706 MiB
Duration                         : 1h 31mn
Overall bit rate                 : 1 075 Kbps

Video

Format                           : MPEG-4 Visual
Codec ID/Hint                    : XviD
Duration                         : 1h 31mn
Bit rate                         : 934 Kbps
Width                            : 720 pixels
Height                           : 576 pixels
Display aspect ratio             : 16:9
Stream size                      : 613 MiB (87%)
Writing library                  : XviD 1.1.2 (UTC 2006-11-01)

Audio

Format                           : MPEG Audio
Codec ID/Hint                    : MP3
Duration                         : 1h 31mn
Bit rate                         : 128 Kbps
Channel(s)                       : 2 channels
Sampling rate                    : 48.0 KHz
Stream size                      : 84.0 MiB (12%)
Language                         : English

Text #1
Language                         : Danish

Text #2
Language                         : Finnish

Text #3
Language                         : Norwegian

Text #4
Language                         : Swedish

